<svg width="22" height="18" viewBox="0 0 22 18" fill="none" xmlns="http://www.w3.org/2000/svg">
<path d="M21.175 6.80001H16.5V1.02501C16.5 0.5692 16.1308 0.200012 15.675 0.200012H10.725C10.2692 0.200012 9.9 0.5692 9.9 1.02501V3.50001H7.7V0.750012C7.7 0.446137 7.45388 0.200012 7.15 0.200012H6.6C6.29612 0.200012 6.05 0.446137 6.05 0.750012V3.50001H3.85V0.750012C3.85 0.446137 3.60388 0.200012 3.3 0.200012H2.75C2.44613 0.200012 2.2 0.446137 2.2 0.750012V3.50001H0.825C0.369188 3.50001 0 3.8692 0 4.32501V16.7C0 17.3074 0.492594 17.8 1.1 17.8H20.9C21.5074 17.8 22 17.3074 22 16.7V7.62501C22 7.1692 21.6305 6.80001 21.175 6.80001ZM4.4 14.0875C4.4 14.3154 4.21541 14.5 3.9875 14.5H2.6125C2.38459 14.5 2.2 14.3154 2.2 14.0875V12.7125C2.2 12.4846 2.38459 12.3 2.6125 12.3H3.9875C4.21541 12.3 4.4 12.4846 4.4 12.7125V14.0875ZM4.4 10.7875C4.4 11.0154 4.21541 11.2 3.9875 11.2H2.6125C2.38459 11.2 2.2 11.0154 2.2 10.7875V9.41251C2.2 9.18461 2.38459 9.00001 2.6125 9.00001H3.9875C4.21541 9.00001 4.4 9.18461 4.4 9.41251V10.7875ZM4.4 7.48751C4.4 7.71542 4.21541 7.90001 3.9875 7.90001H2.6125C2.38459 7.90001 2.2 7.71542 2.2 7.48751V6.11251C2.2 5.88461 2.38459 5.70001 2.6125 5.70001H3.9875C4.21541 5.70001 4.4 5.88461 4.4 6.11251V7.48751ZM8.8 14.0875C8.8 14.3154 8.61541 14.5 8.3875 14.5H7.0125C6.78459 14.5 6.6 14.3154 6.6 14.0875V12.7125C6.6 12.4846 6.78459 12.3 7.0125 12.3H8.3875C8.61541 12.3 8.8 12.4846 8.8 12.7125V14.0875ZM8.8 10.7875C8.8 11.0154 8.61541 11.2 8.3875 11.2H7.0125C6.78459 11.2 6.6 11.0154 6.6 10.7875V9.41251C6.6 9.18461 6.78459 9.00001 7.0125 9.00001H8.3875C8.61541 9.00001 8.8 9.18461 8.8 9.41251V10.7875ZM8.8 7.48751C8.8 7.71542 8.61541 7.90001 8.3875 7.90001H7.0125C6.78459 7.90001 6.6 7.71542 6.6 7.48751V6.11251C6.6 5.88461 6.78459 5.70001 7.0125 5.70001H8.3875C8.61541 5.70001 8.8 5.88461 8.8 6.11251V7.48751ZM14.3 10.7875C14.3 11.0154 14.1154 11.2 13.8875 11.2H12.5125C12.2846 11.2 12.1 11.0154 12.1 10.7875V9.41251C12.1 9.18461 12.2846 9.00001 12.5125 9.00001H13.8875C14.1154 9.00001 14.3 9.18461 14.3 9.41251V10.7875ZM14.3 7.48751C14.3 7.71542 14.1154 7.90001 13.8875 7.90001H12.5125C12.2846 7.90001 12.1 7.71542 12.1 7.48751V6.11251C12.1 5.88461 12.2846 5.70001 12.5125 5.70001H13.8875C14.1154 5.70001 14.3 5.88461 14.3 6.11251V7.48751ZM14.3 4.18751C14.3 4.41542 14.1154 4.60001 13.8875 4.60001H12.5125C12.2846 4.60001 12.1 4.41542 12.1 4.18751V2.81251C12.1 2.58461 12.2846 2.40001 12.5125 2.40001H13.8875C14.1154 2.40001 14.3 2.58461 14.3 2.81251V4.18751ZM19.8 14.0875C19.8 14.3154 19.6154 14.5 19.3875 14.5H18.0125C17.7846 14.5 17.6 14.3154 17.6 14.0875V12.7125C17.6 12.4846 17.7846 12.3 18.0125 12.3H19.3875C19.6154 12.3 19.8 12.4846 19.8 12.7125V14.0875ZM19.8 10.7875C19.8 11.0154 19.6154 11.2 19.3875 11.2H18.0125C17.7846 11.2 17.6 11.0154 17.6 10.7875V9.41251C17.6 9.18461 17.7846 9.00001 18.0125 9.00001H19.3875C19.6154 9.00001 19.8 9.18461 19.8 9.41251V10.7875Z" fill="#EB4448"/>
</svg>
